<mxfile host="65bd71144e">
    <diagram id="tF_GdVHEsHdy9o1XKxg5" name="Page-1">
        <mxGraphModel dx="1411" dy="710" grid="1" gridSize="10" guides="1" tooltips="1" connect="1" arrows="1" fold="1" page="1" pageScale="1" pageWidth="850" pageHeight="1100" math="0" shadow="0">
            <root>
                <mxCell id="0"/>
                <mxCell id="1" parent="0"/>
                <mxCell id="2" value="" style="whiteSpace=wrap;html=1;fillColor=#f5f5f5;fontColor=#333333;strokeColor=#666666;" vertex="1" parent="1">
                    <mxGeometry x="-160" y="50" width="470" height="730" as="geometry"/>
                </mxCell>
                <mxCell id="3" value="TITLE" style="whiteSpace=wrap;html=1;" vertex="1" parent="1">
                    <mxGeometry x="-135" y="70" width="420" height="60" as="geometry"/>
                </mxCell>
                <mxCell id="4" value="" style="whiteSpace=wrap;html=1;" vertex="1" parent="1">
                    <mxGeometry x="-130" y="140" width="410" height="550" as="geometry"/>
                </mxCell>
                <mxCell id="5" value="Contaienr Name" style="whiteSpace=wrap;html=1;fillColor=#f5f5f5;fontColor=#333333;strokeColor=#666666;" vertex="1" parent="1">
                    <mxGeometry x="-110" y="160" width="370" height="30" as="geometry"/>
                </mxCell>
                <mxCell id="6" value="Widget Small" style="whiteSpace=wrap;html=1;fillColor=#f5f5f5;fontColor=#333333;strokeColor=#666666;" vertex="1" parent="1">
                    <mxGeometry x="-110" y="210" width="180" height="100" as="geometry"/>
                </mxCell>
                <mxCell id="8" value="Widget Small" style="whiteSpace=wrap;html=1;fillColor=#f5f5f5;fontColor=#333333;strokeColor=#666666;" vertex="1" parent="1">
                    <mxGeometry x="80" y="210" width="180" height="100" as="geometry"/>
                </mxCell>
                <mxCell id="9" value="Widget Wide" style="whiteSpace=wrap;html=1;fillColor=#f5f5f5;fontColor=#333333;strokeColor=#666666;" vertex="1" parent="1">
                    <mxGeometry x="-110" y="320" width="370" height="100" as="geometry"/>
                </mxCell>
                <mxCell id="10" value="Widget Large" style="whiteSpace=wrap;html=1;fillColor=#f5f5f5;fontColor=#333333;strokeColor=#666666;" vertex="1" parent="1">
                    <mxGeometry x="-110" y="430" width="370" height="240" as="geometry"/>
                </mxCell>
            </root>
        </mxGraphModel>
    </diagram>
</mxfile>